<svg xmlns:dc="http://purl.org/dc/elements/1.1/" xmlns:cc="http://creativecommons.org/ns#" xmlns:rdf="http://www.w3.org/1999/02/22-rdf-syntax-ns#" xmlns:svg="http://www.w3.org/2000/svg" xmlns="http://www.w3.org/2000/svg" xmlns:sodipodi="http://sodipodi.sourceforge.net/DTD/sodipodi-0.dtd" xmlns:inkscape="http://www.inkscape.org/namespaces/inkscape" version="1.1" x="0px" y="0px" viewBox="0 0 100 125"><g transform="translate(0,-952.36218)"><path style="color:#FFF;enable-background:accumulate;" d="m 17,975.36217 c -1.1794,0 -2.2619,0.3632 -3.1875,0.9688 l 33.7813,32.00003 c 1.4798,1.4027 3.3976,1.4026 4.875,0 l 33.7187,-32.00003 c -0.9256,-0.6056 -2.0081,-0.9688 -3.1875,-0.9688 l -66,0 z m -5.625,4.125 c -0.2285,0.6606 -0.375,1.3495 -0.375,2.0938 l 0,41.56243 c 0,1.263 0.3517,2.4267 0.9688,3.4063 L 35.8438,1002.706 11.375,979.48717 z m 77.25,0 -24.4062,23.18753 23.8124,23.875 C 88.6483,1025.5701 89,1024.4064 89,1023.1434 l 0,-41.56243 c 0,-0.7443 -0.1465,-1.4332 -0.375,-2.0938 z m -27.3125,25.96883 -6.0937,5.7812 c -2.9018,2.7551 -7.4728,2.7512 -10.375,0 l -6.0938,-5.75 -23.625,23.5625 c 0.5909,0.201 1.2178,0.3125 1.875,0.3125 l 66,0 c 0.6572,0 1.2841,-0.1115 1.875,-0.3125 L 61.3125,1005.456 z" fill="#FFF" stroke="none" marker="none" visibility="visible" display="inline" overflow="visible"/></g></svg>
